# File created by Blade
# Date/Time:  Fri Jan 16 19:49:56 2015
# Frame Rate: 120.000 fps
#------------------------------------------------------
:FULLY-SPECIFIED
:DEGREES
772
root 19.980799 35.406433 -19.766608 -172.402017 -0.702540 -178.600552
Spine -18.544362 0.163193 0.850484
Head 9.546585 -1.631062 1.314320
LeftShoulder -2.207401 -35.311309 -1.423712
LeftArm 7.544050 22.604521 -41.284728
LeftForeArm 17.110160 -0.000000 0.392771
LeftHand -2.669350 -0.000000 -5.134206
LeftHandThumb1 -26.253704 0.000000 33.147579
RightShoulder -3.952718 -4.413208 4.386038
RightArm 29.385055 2.166434 41.526680
RightForeArm -34.956107 -0.000000 10.883991
RightHand 1.265961 0.000000 9.014546
RightHandThumb1 -24.326973 -0.000000 -32.862282
LeftUpLeg -1.846507 7.356213 5.110309
LeftLeg -5.337140 -0.000000 0.000000
LeftFoot -18.497988 26.035052 -11.256717
LeftToeBase 28.775113 -0.000000 -0.000000
RightUpLeg -2.330183 1.353369 -3.149693
RightLeg -1.258164 -0.000000 0.000000
RightFoot -22.222236 -20.320498 17.218471
RightToeBase 24.674821 -0.000000 -0.000000
773
root 19.979783 35.410677 -19.752512 -172.325364 -0.727695 -178.607034
Spine -18.862013 0.198579 0.769277
Head 9.445677 -1.756522 1.393309
LeftShoulder -1.919510 -35.529347 -1.056693
LeftArm 8.266896 22.725432 -40.257958
LeftForeArm 17.142950 -0.000000 0.448194
LeftHand -2.797224 -0.000000 -4.892234
LeftHandThumb1 -26.253704 0.000000 33.147579
RightShoulder -3.974039 -4.252671 4.080448
RightArm 29.505454 2.770965 40.584472
RightForeArm -35.061237 -0.000000 10.732452
RightHand 1.130120 0.000000 8.982564
RightHandThumb1 -24.326973 -0.000000 -32.862282
LeftUpLeg -1.941775 7.249016 5.109449
LeftLeg -5.342892 -0.000000 0.000000
LeftFoot -18.508418 26.057520 -11.388864
LeftToeBase 28.782986 -0.000000 -0.000000
RightUpLeg -2.455646 1.123347 -3.139174
RightLeg -1.196260 -0.000000 0.000000
RightFoot -22.217500 -20.182295 17.246913
RightToeBase 24.530114 -0.000000 -0.000000
774
root 19.974654 35.414883 -19.739573 -172.276581 -0.749999 -178.606101
Spine -19.114895 0.180573 0.721029
Head 9.317074 -1.883235 1.456649
LeftShoulder -1.724304 -35.719381 -0.632094
LeftArm 8.975660 22.128547 -39.344086
LeftForeArm 17.883973 0.000000 0.392567
LeftHand -2.745458 -0.000000 -4.798713
LeftHandThumb1 -26.253704 0.000000 33.147579
RightShoulder -3.894341 -4.143700 3.742963
RightArm 29.546700 3.373740 39.617609
RightForeArm -35.122427 -0.000000 10.613610
RightHand 1.022111 -0.000000 9.020039
RightHandThumb1 -24.326973 -0.000000 -32.862282
LeftUpLeg -2.021349 7.113514 5.116359
LeftLeg -5.317797 -0.000000 0.000000
LeftFoot -18.539769 26.094752 -11.502439
LeftToeBase 28.776146 -0.000000 -0.000000
RightUpLeg -2.559272 0.898063 -3.127106
RightLeg -1.122714 -0.000000 0.000000
RightFoot -22.161022 -20.020888 17.207360
RightToeBase 24.346649 -0.000000 -0.000000
775
root 19.967123 35.419161 -19.726928 -172.246716 -0.773066 -178.608442
Spine -19.323824 0.170340 0.692659
Head 9.189945 -1.964639 1.478565
LeftShoulder -1.474089 -35.997533 -0.308317
LeftArm 9.562332 22.313180 -38.262246
LeftForeArm 17.849315 -0.000000 0.444389
LeftHand -2.864019 -0.000000 -4.431063
LeftHandThumb1 -26.253704 0.000000 33.147579
RightShoulder -3.818988 -3.998332 3.420989
RightArm 29.527133 4.113904 38.733250
RightForeArm -35.507125 -0.000000 10.537427
RightHand 0.785581 0.000000 9.066799
RightHandThumb1 -24.326973 -0.000000 -32.862282
LeftUpLeg -2.094270 6.975996 5.115450
LeftLeg -5.268911 -0.000000 0.000000
LeftFoot -18.566433 26.141746 -11.590484
LeftToeBase 28.748562 -0.000000 -0.000000
RightUpLeg -2.653513 0.675143 -3.120433
RightLeg -1.036814 -0.000000 0.000000
RightFoot -22.127119 -19.822418 17.298794
RightToeBase 24.117325 -0.000000 -0.000000
776
root 19.959111 35.423162 -19.715742 -172.260697 -0.782541 -178.628870
Spine -19.438226 0.180803 0.628753
Head 9.018770 -2.036541 1.532232
LeftShoulder -1.270972 -36.223203 -0.015240
LeftArm 10.296447 22.591213 -37.077879
LeftForeArm 17.756917 -0.000000 0.400639
LeftHand -2.882675 -0.000000 -4.041810
LeftHandThumb1 -26.253704 0.000000 33.147579
RightShoulder -3.757523 -3.692338 3.083309
RightArm 29.289813 4.254043 37.507013
RightForeArm -35.094799 0.000000 10.579393
RightHand 0.507366 -0.000000 9.237290
RightHandThumb1 -24.326973 -0.000000 -32.862282
LeftUpLeg -2.132773 6.873570 5.093185
LeftLeg -5.197925 -0.000000 0.000000
LeftFoot -18.602609 26.178508 -11.677138
LeftToeBase 28.744137 -0.000000 -0.000000
RightUpLeg -2.712707 0.480642 -3.135959
RightLeg -0.931143 -0.000000 0.000000
RightFoot -22.125766 -19.695253 17.227762
RightToeBase 24.215289 -0.000000 -0.000000
777
root 19.947748 35.427647 -19.701513 -172.241979 -0.800631 -178.626778
Spine -19.572740 0.161461 0.627038
Head 8.846119 -2.139316 1.527977
LeftShoulder -1.104791 -36.563327 0.354381
LeftArm 10.753913 22.966260 -36.006929
LeftForeArm 17.874660 0.000000 0.549080
LeftHand -3.031061 -0.000000 -4.006335
LeftHandThumb1 -26.253704 0.000000 33.147579
RightShoulder -3.680965 -3.512744 2.672762
RightArm 29.154226 4.741742 36.559278
RightForeArm -35.220928 0.000000 10.458469
RightHand 0.355092 -0.000000 9.050910
RightHandThumb1 -24.326973 -0.000000 -32.862282
LeftUpLeg -2.224772 6.749465 5.083769
LeftLeg -5.099688 -0.000000 0.000000
LeftFoot -18.670136 26.239858 -11.741442
LeftToeBase 28.777024 -0.000000 -0.000000
RightUpLeg -2.820025 0.320869 -3.136501
RightLeg -0.803339 -0.000000 0.000000
RightFoot -22.115464 -19.550394 17.312167
RightToeBase 24.081285 -0.000000 -0.000000
778
root 19.934686 35.431864 -19.693567 -172.325215 -0.795285 -178.646717
Spine -19.563014 0.119890 0.602368
Head 8.671388 -2.123535 1.547883
LeftShoulder -0.957969 -36.896122 0.697422
LeftArm 11.218690 23.165633 -34.906282
LeftForeArm 18.014362 -0.000000 0.590112
LeftHand -2.939404 -0.000000 -3.740387
LeftHandThumb1 -26.253704 0.000000 33.147579
RightShoulder -3.604927 -3.262324 2.329073
RightArm 29.007485 5.188096 35.553088
RightForeArm -35.272854 0.000000 10.316269
RightHand 0.222878 -0.000000 9.217875
RightHandThumb1 -24.326973 -0.000000 -32.862282
LeftUpLeg -2.195285 6.673774 5.057381
LeftLeg -5.005778 -0.000000 0.000000
LeftFoot -18.737943 26.261064 -11.794954
LeftToeBase 28.834593 -0.000000 -0.000000
RightUpLeg -2.801573 0.199767 -3.168428
RightLeg -0.704798 -0.000000 0.000000
RightFoot -22.116127 -19.399235 17.366438
RightToeBase 23.947567 -0.000000 -0.000000
779
root 19.919399 35.435661 -19.688217 -172.437674 -0.794276 -178.676649
Spine -19.509808 0.126141 0.559823
Head 8.489843 -2.255413 1.518329
LeftShoulder -0.786779 -37.307894 1.043230
LeftArm 11.593956 23.451005 -33.872521
LeftForeArm 18.126378 0.000000 0.634613
LeftHand -3.027445 -0.000000 -3.622870
LeftHandThumb1 -26.253704 0.000000 33.147579
RightShoulder -3.553157 -2.986527 1.960744
RightArm 28.818663 6.034861 34.800986
RightForeArm -35.671885 -0.000000 10.120157
RightHand 0.326914 0.000000 9.469538
RightHandThumb1 -24.326973 -0.000000 -32.862282
LeftUpLeg -2.136348 6.569978 5.021002
LeftLeg -4.903464 -0.000000 0.000000
LeftFoot -18.790386 26.348958 -11.786978
LeftToeBase 28.813787 -0.000000 -0.000000
RightUpLeg -2.747930 0.139409 -3.216895
RightLeg -0.600557 -0.000000 0.000000
RightFoot -22.157262 -19.316830 17.373343
RightToeBase 23.950383 -0.000000 -0.000000
780
root 19.903669 35.438268 -19.683137 -172.548783 -0.787693 -178.695736
Spine -19.430979 0.100103 0.554737
Head 8.276337 -2.252944 1.505835
LeftShoulder -0.699307 -37.764483 1.442102
LeftArm 11.870859 23.636725 -32.878121
LeftForeArm 18.295437 -0.000000 0.739652
LeftHand -3.036011 -0.000000 -3.768104
LeftHandThumb1 -26.253704 0.000000 33.147579
RightShoulder -3.505432 -2.771279 1.549461
RightArm 28.650782 6.558191 33.912027
RightForeArm -35.735762 -0.000000 9.963920
RightHand 0.163147 -0.000000 9.612729
RightHandThumb1 -24.326973 -0.000000 -32.862282
LeftUpLeg -2.081294 6.444807 4.999873
LeftLeg -4.785050 -0.000000 0.000000
LeftFoot -18.950095 26.365760 -11.935293
LeftToeBase 28.829141 -0.000000 -0.000000
RightUpLeg -2.694674 0.141701 -3.255436
RightLeg -0.506173 -0.000000 0.000000
RightFoot -22.236293 -19.281457 17.501740
RightToeBase 23.986257 -0.000000 -0.000000
781
root 19.887033 35.440382 -19.679208 -172.661069 -0.787009 -178.725867
Spine -19.337617 0.071633 0.524915
Head 8.086438 -2.298596 1.495614
LeftShoulder -0.565297 -38.200168 1.789688
LeftArm 12.093927 24.010195 -31.825920
LeftForeArm 18.210090 -0.000000 0.897316
LeftHand -3.055085 -0.000000 -3.381290
LeftHandThumb1 -26.253704 0.000000 33.147579
RightShoulder -3.455613 -2.442739 1.181560
RightArm 28.353622 7.114389 33.055306
RightForeArm -36.038943 -0.000000 9.824055
RightHand 0.149301 -0.000000 9.654803
RightHandThumb1 -24.326973 -0.000000 -32.862282
LeftUpLeg -2.034884 6.341236 4.961320
LeftLeg -4.653553 -0.000000 0.000000
LeftFoot -19.055976 26.397386 -11.969671
LeftToeBase 28.876174 -0.000000 -0.000000
RightUpLeg -2.634697 0.166108 -3.308836
RightLeg -0.415557 -0.000000 0.000000
RightFoot -22.278671 -19.243774 17.550582
RightToeBase 23.895993 -0.000000 -0.000000
782
root 19.868199 35.441320 -19.676126 -172.795969 -0.769646 -178.763982
Spine -19.201994 0.032761 0.505674
Head 7.862905 -2.262858 1.481275
LeftShoulder -0.545677 -38.490295 2.163603
LeftArm 12.462914 24.336153 -30.703770
LeftForeArm 18.099639 -0.000000 1.023046
LeftHand -3.048752 -0.000000 -3.224663
LeftHandThumb1 -26.253704 0.000000 33.147579
RightShoulder -3.405959 -2.213667 0.815161
RightArm 28.127059 7.626601 32.114256
RightForeArm -36.166172 -0.000000 9.674586
RightHand 0.027206 -0.000000 9.739245
RightHandThumb1 -24.326973 -0.000000 -32.862282
LeftUpLeg -1.960896 6.220596 4.918015
LeftLeg -4.525196 -0.000000 0.000000
LeftFoot -19.157995 26.438918 -11.978410
LeftToeBase 28.851276 -0.000000 -0.000000
RightUpLeg -2.548467 0.223947 -3.380083
RightLeg -0.326558 -0.000000 0.000000
RightFoot -22.348186 -19.295956 17.595270
RightToeBase 23.647995 -0.000000 -0.000000
783
root 19.846767 35.442298 -19.673404 -172.924959 -0.752265 -178.804253
Spine -19.063883 -0.004188 0.499920
Head 7.689743 -2.265479 1.410754
LeftShoulder -0.526488 -38.787553 2.535260
LeftArm 12.745159 24.417636 -29.676891
LeftForeArm 18.229384 -0.000000 1.142674
LeftHand -3.199092 -0.000000 -3.238591
LeftHandThumb1 -26.253704 0.000000 33.147579
RightShoulder -3.365975 -1.915035 0.445237
RightArm 27.818338 8.073657 31.177873
RightForeArm -36.320782 -0.000000 9.586847
RightHand -0.074133 0.000000 9.974864
RightHandThumb1 -24.326973 -0.000000 -32.862282
LeftUpLeg -1.877906 6.035597 4.859414
LeftLeg -4.420086 -0.000000 0.000000
LeftFoot -19.278426 26.611347 -12.011534
LeftToeBase 28.850356 -0.000000 -0.000000
RightUpLeg -2.465117 0.285254 -3.455479
RightLeg -0.243936 -0.000000 0.000000
RightFoot -22.416843 -19.320255 17.654774
RightToeBase 23.500317 -0.000000 -0.000000
